<?xml version="1.0" standalone="no"?>
<svg version="1.0" xmlns="http://www.w3.org/2000/svg"
 width="850.000000pt" height="850.000000pt" viewBox="0 0 850.000000 850.000000"
 preserveAspectRatio="xMidYMid meet">

<g transform="translate(0.000000,850.000000) scale(0.100000,-0.100000)"
fill="#000000" stroke="none">
<path d="M2560 6443 c-42 -27 -470 -455 -497 -497 -26 -41 -35 -127 -13 -134
5 -2 10 -9 10 -15 0 -13 720 -737 732 -737 4 0 187 -181 408 -402 l401 -401
-245 -246 c-135 -136 -246 -249 -246 -252 0 -9 -89 -99 -98 -99 -4 0 -16 -14
-27 -30 -11 -16 -25 -30 -30 -30 -6 0 -19 -12 -30 -27 -11 -14 -205 -211 -430
-437 -226 -226 -421 -428 -433 -449 -28 -49 -28 -88 2 -135 35 -55 486 -499
519 -511 40 -15 83 -14 101 4 8 8 18 15 23 15 4 0 353 345 775 767 l768 768
768 -768 c422 -422 773 -767 780 -767 6 0 12 -4 12 -9 0 -15 74 -23 105 -11
34 13 485 456 521 512 30 47 30 86 2 135 -12 21 -207 223 -433 449 -225 226
-427 431 -448 455 -21 24 -178 184 -348 355 l-311 311 494 490 c271 269 615
611 765 758 149 147 274 279 277 292 4 12 11 23 16 23 16 0 11 89 -7 118 -24
40 -452 470 -495 498 -37 24 -128 35 -128 15 0 -5 -13 -15 -28 -22 -16 -8
-368 -350 -782 -761 -415 -412 -757 -748 -760 -748 -3 0 -309 300 -680 666
-854 842 -838 826 -883 852 -45 26 -92 27 -127 5z"/>
</g>
</svg>
