<?xml version="1.0" standalone="no"?>
<svg version="1.0" xmlns="http://www.w3.org/2000/svg"
 width="920.000000pt" height="920.000000pt" viewBox="0 0 920.000000 920.000000"
 preserveAspectRatio="xMidYMid meet">

<g transform="translate(0.000000,920.000000) scale(0.100000,-0.100000)"
fill="#000000" stroke="none">
<path d="M2261 9188 c-540 -36 -1040 -247 -1442 -608 -465 -419 -730 -938
-798 -1565 -5 -44 -9 -656 -8 -1360 0 -704 3 -1239 6 -1190 6 94 17 99 16 8
-1 -29 1 -50 4 -48 8 9 31 -17 24 -28 -3 -6 -1 -7 5 -3 7 4 12 2 12 -3 0 -19
-5 -26 -15 -23 -5 2 -7 0 -3 -4 4 -4 2 -14 -4 -23 -7 -9 0 -5 14 8 15 13 24
29 21 37 -11 29 9 13 22 -19 10 -23 14 -27 15 -12 0 16 2 17 9 6 6 -9 6 -22 0
-32 -6 -12 -5 -20 3 -25 6 -4 8 -3 5 3 -4 6 0 19 8 29 13 18 14 17 10 -13 -2
-18 1 -36 7 -39 6 -4 8 -2 4 4 -3 6 -2 13 3 16 14 9 21 -20 8 -35 -7 -7 -2 -5
11 5 23 20 31 10 10 -14 -10 -11 -9 -11 6 0 18 14 19 13 13 -2 -4 -11 -2 -17
6 -15 7 1 11 -4 9 -11 -1 -8 2 -11 8 -7 9 6 15 -8 11 -29 -1 -5 6 -3 15 5 16
12 17 12 11 -3 -3 -10 -1 -20 5 -24 6 -4 8 -3 5 3 -3 5 3 24 14 42 15 25 23
30 33 22 8 -7 16 -7 23 0 7 7 14 4 24 -7 9 -12 10 -15 2 -10 -12 6 -15 -1 -15
-34 -1 -3 3 -18 6 -35 5 -20 4 -27 -2 -20 -6 6 -12 21 -15 35 -4 23 -4 22 -6
-5 -1 -22 -4 -26 -10 -16 -5 8 -6 22 -2 30 5 9 5 25 0 36 l-8 20 -1 -20 -1
-20 -9 20 -9 20 -2 -20 c-4 -42 -4 -55 3 -53 4 2 14 -6 22 -17 11 -15 12 -23
3 -35 -6 -8 -2 -6 11 4 26 23 29 11 4 -18 -17 -21 -17 -21 6 -2 23 20 32 10
10 -12 -14 -14 -20 -44 -7 -36 5 3 7 9 4 14 -3 4 2 13 10 20 10 8 13 21 9 34
-5 17 -4 19 7 8 11 -10 11 -19 1 -45 -10 -27 -9 -29 2 -15 7 10 16 15 19 11 4
-3 1 -13 -6 -22 -11 -14 -10 -14 6 -2 9 7 17 9 17 3 0 -13 -25 -33 -33 -26 -3
3 -10 -3 -16 -15 -8 -13 -8 -22 -1 -26 6 -4 10 -3 9 2 -3 20 2 34 11 28 6 -4
7 -11 4 -17 -4 -7 -2 -8 5 -4 6 4 9 10 7 14 -2 4 6 20 19 36 l23 29 -3 -37
c-2 -20 0 -34 5 -31 5 3 10 2 13 -2 2 -5 2 -3 1 4 -2 7 1 15 6 18 6 4 10 -7
10 -23 0 -41 25 -61 40 -32 6 12 14 19 17 17 2 -3 0 -14 -5 -24 -11 -20 3 -58
17 -49 9 6 36 -44 32 -58 -1 -5 6 -3 15 5 16 12 17 12 11 -3 -3 -10 -2 -20 4
-23 5 -4 9 -3 8 2 -3 20 2 34 11 28 6 -4 6 -15 0 -31 -6 -14 -6 -23 -1 -20 11
7 53 -39 44 -48 -5 -4 -1 -6 7 -4 18 4 21 -29 6 -52 -8 -13 -8 -13 4 -2 8 7
16 17 16 23 1 5 2 14 3 20 3 25 18 -4 16 -31 -1 -17 1 -33 6 -35 4 -3 6 3 4
15 -2 11 0 22 6 25 5 4 9 0 9 -7 0 -10 2 -10 8 -1 9 14 7 71 -2 80 -3 4 -6 0
-6 -8 0 -12 -2 -11 -11 1 -9 13 -10 12 -5 -2 3 -10 1 -20 -4 -23 -6 -4 -10 -2
-10 4 0 5 -3 17 -7 27 -4 11 -3 15 5 10 6 -3 13 -2 16 3 13 21 -14 20 -28 -1
l-16 -22 0 22 c0 15 4 21 12 16 7 -4 8 -3 4 4 -4 7 -9 22 -11 34 -6 27 11 11
18 -17 4 -18 5 -18 6 2 0 12 5 24 10 27 5 4 7 -3 4 -14 -7 -26 13 -50 37 -45
10 2 27 -6 37 -18 11 -13 12 -17 3 -10 -13 10 -18 8 -28 -8 -10 -15 -10 -24
-2 -34 7 -9 8 -15 1 -20 -6 -3 -10 -17 -9 -30 2 -19 5 -22 16 -12 11 9 13 7
10 -8 -1 -11 3 -20 10 -20 15 0 33 -26 26 -37 -3 -5 0 -7 7 -6 7 2 13 -2 14
-9 0 -6 4 -15 8 -20 5 -4 7 -3 5 2 -2 6 2 10 7 10 6 0 9 -6 7 -13 -3 -12 -1
-12 11 -1 11 10 12 16 3 21 -7 5 -6 8 3 8 11 0 9 4 -5 15 -16 13 -16 14 -2 9
17 -6 18 59 19 1262 0 698 2 1285 4 1304 2 19 6 88 10 152 5 102 31 258 66
393 16 61 87 251 129 340 104 224 296 481 482 646 337 297 710 469 1135 523
164 21 3647 21 3812 0 463 -59 896 -275 1221 -610 342 -352 533 -753 590
-1234 13 -109 14 -3694 1 -3753 -5 -23 -14 -78 -21 -122 -35 -243 -162 -563
-308 -780 -364 -540 -918 -874 -1552 -934 -63 -6 -652 -11 -1473 -12 -762 -2
-1370 -6 -1373 -11 -3 -5 -12 -4 -19 2 -10 8 -15 8 -21 -2 -4 -7 -4 -10 1 -6
4 4 14 3 21 -3 8 -7 14 -7 19 1 3 6 11 7 17 4 6 -4 24 -7 39 -6 30 1 46 -12
29 -23 -5 -3 -10 -1 -10 4 0 6 -5 11 -12 11 -6 0 -8 -3 -5 -7 4 -3 1 -13 -6
-22 -10 -14 -10 -14 4 -4 13 11 19 10 33 -5 9 -10 14 -22 11 -25 -3 -4 -2 -5
2 -2 8 6 53 -35 53 -48 0 -6 -12 0 -28 14 l-27 24 24 -27 c13 -15 27 -25 31
-23 12 7 28 -18 25 -38 -2 -9 1 -15 6 -11 5 3 7 10 4 15 -4 5 0 9 7 9 9 0 9 3
-2 10 -13 9 -13 10 0 10 12 0 13 2 1 9 -9 6 -12 18 -7 37 5 22 4 25 -4 14 -9
-12 -10 -12 -8 5 2 12 -2 19 -9 17 -7 -1 -13 3 -13 9 0 6 6 9 14 6 17 -7 39
16 28 28 -4 5 -1 5 6 1 9 -6 10 -11 3 -20 -6 -7 -8 -16 -4 -19 3 -4 12 1 20
11 8 9 5 1 -6 -19 -22 -38 -30 -78 -10 -49 7 11 9 4 7 -27 -1 -28 3 -48 15
-61 9 -10 14 -23 10 -27 -5 -5 1 -3 11 5 18 14 19 13 12 -5 -4 -11 -4 -16 0
-12 10 10 35 -13 27 -26 -4 -6 -1 -7 7 -2 10 6 12 4 7 -9 -4 -11 -3 -15 4 -11
6 4 8 13 5 21 -3 7 -1 16 4 19 15 9 12 -39 -2 -55 -11 -12 -10 -12 4 -1 14 10
19 9 29 -11 7 -13 12 -27 11 -31 -1 -5 2 -6 8 -2 9 6 15 -8 11 -30 -1 -5 4 -3
13 5 8 8 17 35 19 60 2 25 2 37 0 27 -3 -9 -8 -15 -13 -12 -5 3 -7 13 -4 23 5
14 4 15 -5 2 -9 -13 -11 -13 -11 0 0 13 -1 13 -10 0 -7 -11 -9 -7 -7 15 1 20
-2 29 -10 27 -7 -1 -14 2 -14 8 -1 5 -2 14 -3 19 0 5 -4 13 -8 16 -4 4 -3 15
2 25 5 10 6 21 2 25 -4 5 -1 5 6 1 9 -5 9 -13 2 -26 -7 -13 -7 -21 0 -25 6 -4
8 -11 5 -16 -4 -5 -1 -9 4 -9 6 0 11 6 11 13 0 8 4 7 10 -3 9 -13 10 -13 10 0
0 13 1 13 10 0 6 -10 4 -20 -7 -32 -9 -10 -13 -19 -10 -19 29 -6 54 -4 67 5
12 9 13 8 3 -4 -15 -20 -20 -55 -8 -55 6 0 9 4 7 9 -2 5 4 4 12 -4 13 -10 16
-10 16 1 1 9 4 8 11 -4 6 -9 16 -14 22 -11 7 4 2 -4 -11 -18 -15 -17 -20 -28
-13 -33 6 -3 11 0 11 7 0 9 3 9 10 -2 9 -13 10 -13 10 0 0 13 1 13 10 0 9 -13
10 -13 10 0 1 12 3 11 11 -3 5 -9 8 -21 5 -26 -3 -5 1 -14 8 -20 10 -8 16 -9
21 -1 11 18 26 0 15 -20 -5 -10 -8 -37 -6 -59 3 -26 0 -39 -6 -35 -5 4 -8 17
-5 30 2 13 0 21 -4 18 -5 -3 -6 2 -3 10 3 8 1 23 -5 33 -9 15 -10 13 -6 -12 5
-25 4 -27 -5 -12 -7 10 -9 24 -6 32 2 7 -2 19 -10 25 -12 11 -13 7 -7 -20 4
-24 3 -31 -6 -26 -6 4 -9 11 -6 16 3 5 0 20 -7 35 -8 18 -14 22 -20 13 -6 -10
-8 -10 -8 1 0 11 -4 9 -15 -5 -8 -10 -15 -14 -15 -8 0 6 3 14 7 18 12 11 12
37 1 30 -7 -5 -8 -2 -3 6 6 9 4 11 -5 5 -8 -5 -11 -4 -7 2 3 5 0 10 -8 10 -8
0 -12 -3 -10 -7 2 -3 -3 -19 -11 -35 -11 -21 -11 -25 -1 -16 14 11 27 5 27
-11 0 -5 -5 -6 -12 -2 -7 4 -8 3 -4 -5 4 -6 12 -9 17 -6 5 4 9 0 9 -7 0 -10 2
-10 9 0 6 10 10 7 15 -13 4 -14 3 -31 -1 -38 -11 -17 -12 -36 -3 -42 4 -2 7 3
7 13 0 16 20 72 23 62 5 -19 11 -47 12 -57 1 -9 5 -10 15 -2 21 18 15 -3 -9
-28 -17 -19 -19 -26 -9 -36 10 -9 11 -8 5 7 -5 14 -4 17 5 12 7 -5 10 -2 9 6
-2 7 3 12 10 10 8 -1 11 1 8 6 -2 4 -1 14 5 22 7 12 9 9 10 -10 1 -14 1 -28 0
-32 0 -4 9 -5 20 -3 13 3 19 0 16 -8 -3 -7 -10 -11 -16 -9 -7 1 -10 -2 -6 -8
5 -8 12 -7 23 2 13 11 15 10 9 -5 -4 -11 -3 -16 4 -12 5 4 7 16 3 27 -4 14 -2
18 5 14 15 -9 14 -39 -1 -56 -11 -12 -10 -12 3 -2 16 12 29 7 29 -10 0 -5 -4
-7 -8 -4 -5 3 -9 -1 -9 -9 0 -10 4 -12 12 -5 19 15 38 -12 22 -30 -10 -12 -9
-12 6 -1 15 12 17 11 13 -10 -2 -14 -9 -23 -17 -21 -8 2 -6 -4 5 -17 21 -23
35 -29 17 -7 -7 8 -8 17 -3 20 5 3 9 28 8 55 -2 38 2 51 17 61 11 6 16 7 13 1
-4 -5 -2 -12 4 -16 5 -3 10 1 10 9 0 8 4 18 10 21 6 3 7 -1 4 -10 -4 -8 0 -23
7 -33 13 -15 12 -16 -3 -3 -15 11 -19 11 -23 -1 -4 -9 -4 -28 -2 -44 2 -16 -1
-36 -7 -44 -10 -13 -9 -13 7 -1 20 15 23 2 5 -19 -10 -11 -9 -11 6 0 18 14 19
13 13 -2 -3 -10 -2 -20 4 -23 5 -4 9 -3 8 2 -1 4 -1 14 0 22 2 23 14 4 16 -23
1 -23 -3 -24 -40 -22 -22 1 -51 -1 -65 -5 -14 -4 243 -8 570 -9 327 -1 906 -2
1285 -4 380 -1 742 2 805 6 142 11 378 58 525 105 278 90 541 232 776 419 81
64 276 257 346 341 237 286 422 668 499 1030 55 261 54 188 54 2683 0 1471 -4
2345 -10 2415 -43 466 -226 915 -525 1285 -77 96 -270 288 -368 367 -277 223
-623 390 -967 467 -159 35 -222 44 -400 56 -173 12 -4480 10 -4659 -2z m-2186
-4600 c4 -3 2 -9 -3 -12 -5 -3 -15 1 -21 8 -10 11 -9 14 3 12 9 -1 18 -5 21
-8z m-3 -33 c3 0 8 -2 10 -5 2 -3 1 -4 -1 -3 -6 4 -30 -31 -31 -44 0 -7 5 -13
11 -13 5 0 8 4 5 9 -3 5 2 15 12 22 14 11 15 11 5 0 -9 -10 -9 -18 0 -32 9
-14 8 -21 -2 -31 -11 -11 -12 -9 -7 12 3 14 3 19 0 12 -3 -6 -9 -10 -13 -8 -4
3 -7 -4 -7 -14 0 -10 4 -16 8 -14 4 3 8 -3 9 -13 0 -16 1 -16 8 1 9 25 21 8
12 -17 -6 -17 -8 -17 -26 3 -15 17 -20 37 -21 86 0 43 3 61 10 56 6 -4 14 -7
18 -7z m43 -4 c-3 -5 -1 -12 5 -16 5 -3 10 -1 10 6 0 7 3 10 6 6 3 -3 3 -11
-1 -17 -5 -8 -11 -8 -21 1 -12 10 -11 29 2 29 3 0 3 -4 -1 -9z m32 -39 c-10
-10 -14 -22 -10 -26 5 -4 9 -12 9 -17 1 -5 2 -13 3 -18 1 -10 20 -9 39 2 7 5
9 13 6 19 -5 7 -2 8 5 4 9 -6 9 -12 -3 -25 -9 -10 -13 -21 -9 -25 5 -4 3 -6
-2 -4 -6 2 -10 -1 -10 -7 0 -5 3 -9 6 -8 12 4 -3 -36 -17 -48 -11 -9 -15 -5
-21 22 -4 19 -6 38 -5 42 1 5 -3 5 -9 1 -8 -5 -9 -3 -4 7 5 8 4 10 0 6 -12
-10 -15 -38 -4 -31 5 3 9 -5 9 -18 l0 -22 -16 22 c-9 13 -13 29 -11 36 3 8 3
17 0 20 -10 10 -9 67 1 73 5 4 6 1 2 -5 -12 -20 11 -22 29 -2 10 11 20 20 23
20 3 0 -2 -8 -11 -18z m31 -26 c-1 -14 -5 -23 -9 -20 -7 4 0 44 7 44 2 0 3
-11 2 -24z m49 -58 c-3 -8 -6 -5 -6 6 -1 11 2 17 5 13 3 -3 4 -12 1 -19z m8
-38 c-8 -9 -12 -20 -8 -25 5 -4 2 -5 -4 -1 -8 4 -13 1 -13 -8 0 -9 5 -15 11
-13 6 1 14 -5 16 -13 4 -13 3 -13 -6 0 -10 13 -11 13 -12 0 0 -8 -7 -1 -15 15
-15 29 -15 27 2 -37 5 -22 5 -22 -9 1 -10 18 -16 20 -20 10 -3 -8 -4 -3 -3 11
4 40 24 70 43 63 10 -4 14 -2 10 4 -3 5 0 10 8 10 13 0 13 -3 0 -17z m25 -58
c0 -14 2 -15 9 -2 6 8 7 18 5 22 -9 15 3 8 17 -9 10 -11 10 -14 2 -9 -15 8
-15 8 -17 -56 -1 -26 2 -44 6 -42 4 3 5 -2 2 -10 -5 -13 -9 -12 -24 7 -37 48
-51 89 -27 85 7 -2 12 6 11 19 0 12 3 20 8 17 4 -3 8 -13 8 -22z m77 6 c0 -13
-1 -17 -4 -10 -3 6 -10 9 -16 5 -7 -4 -6 1 2 10 17 21 17 21 18 -5z m-40 -51
c-3 -8 -1 -20 5 -28 8 -11 9 -10 4 4 -3 9 -1 17 5 17 6 0 7 6 3 13 -5 9 -4 9
6 0 9 -8 18 -9 25 -3 8 7 12 5 12 -5 0 -8 -4 -12 -9 -9 -4 3 -8 -1 -9 -8 0
-10 -2 -10 -6 1 -3 8 -12 -1 -24 -25 -11 -22 -17 -32 -15 -24 2 8 -1 23 -5 32
-8 16 -3 48 8 48 3 0 3 -6 0 -13z m107 -2 c3 3 2 0 -4 -7 -6 -8 -5 -17 3 -27
8 -12 6 -11 -9 2 -11 9 -21 24 -21 32 0 10 4 12 12 5 7 -5 15 -8 19 -5z m39
-65 c3 -11 2 -18 -3 -15 -4 3 -10 14 -13 25 -3 11 -2 18 3 15 4 -3 10 -14 13
-25z m-17 -31 c1 -5 2 -14 3 -20 0 -5 6 -7 11 -4 6 4 7 11 4 17 -4 7 -2 8 5 4
8 -6 9 -12 2 -20 -6 -7 -7 -17 -3 -21 4 -5 1 -5 -5 -1 -7 4 -13 3 -13 -2 0
-16 13 -22 27 -11 7 6 13 8 13 4 0 -4 7 -2 16 5 12 11 15 11 12 -1 -2 -8 3
-13 12 -11 12 3 13 1 2 -10 -7 -7 -17 -13 -22 -13 -6 0 -10 -3 -10 -7 0 -5 0
-12 0 -18 0 -5 5 -10 11 -10 5 0 7 6 3 13 -6 9 -4 9 7 1 8 -5 23 -9 35 -9 11
1 21 -4 21 -11 0 -7 -3 -11 -7 -9 -4 2 -7 -10 -8 -27 0 -21 2 -28 7 -19 5 8
14 10 20 7 6 -4 11 -1 11 6 0 9 3 9 10 -2 5 -8 10 -12 11 -7 5 26 4 33 -4 45
-6 7 -7 15 -3 19 3 3 6 1 6 -6 0 -7 4 -10 8 -7 13 8 8 -39 -5 -55 -22 -27 21
-56 53 -37 6 4 11 1 11 -7 0 -8 -4 -12 -7 -10 -4 3 -7 -6 -7 -18 0 -17 5 -23
21 -24 11 0 28 -2 36 -4 9 -2 14 2 12 9 -1 8 2 11 8 7 17 -10 -8 -35 -27 -28
-12 5 -14 3 -8 -7 5 -8 4 -11 -2 -7 -6 4 -13 0 -16 -8 -4 -9 -1 -12 9 -8 14 5
16 1 18 -52 1 -18 6 -29 14 -27 6 1 12 -6 12 -15 0 -13 -9 -8 -36 18 -21 21
-33 41 -31 51 5 19 -16 42 -27 31 -6 -7 -5 10 4 52 4 19 0 35 -9 35 -4 0 -6
-12 -4 -27 l4 -28 -14 30 -14 30 2 -31 c1 -17 5 -36 9 -43 5 -7 6 -15 3 -18
-3 -2 -13 9 -22 26 -9 18 -20 29 -25 26 -13 -8 -18 18 -8 39 15 28 -6 43 -25
16 -19 -27 -26 -16 -29 44 -2 25 -4 46 -4 46 -1 0 -8 -8 -15 -17 -12 -15 -12
-16 1 -8 13 8 13 7 1 -8 -18 -23 -20 -22 -20 11 0 46 -4 61 -14 55 -6 -3 -7
-2 -4 4 3 5 0 10 -6 10 -7 0 -14 -10 -15 -21 -1 -15 1 -17 7 -7 6 9 11 10 15
2 4 -6 4 -16 1 -21 -9 -15 -35 7 -35 29 0 9 -7 25 -15 35 -8 11 -15 29 -15 40
0 24 9 16 15 -14 8 -40 14 -34 11 9 -2 23 0 39 3 35 3 -3 7 -10 7 -15z m-87
-11 c-5 -10 -11 -18 -12 -18 -2 0 -3 8 -4 18 -1 10 5 19 12 19 10 0 11 -5 4
-19z m204 -53 c-7 -21 -12 -19 -10 4 0 11 5 18 9 15 4 -3 5 -11 1 -19z m120
-115 c3 -11 1 -18 -4 -14 -5 3 -9 12 -9 20 0 20 7 17 13 -6z m122 -93 c5 5 3
0 -4 -10 -8 -9 -16 -15 -19 -12 -3 3 -12 -1 -21 -7 -12 -10 -12 -8 1 8 14 16
15 23 5 34 -6 8 -3 7 9 -3 11 -9 25 -14 29 -10z m35 -51 c0 -2 -6 -9 -14 -15
-11 -9 -16 -9 -22 0 -4 8 -3 9 4 5 7 -4 12 -2 12 3 0 6 5 11 10 11 6 0 10 -2
10 -4z m-46 -22 c3 -8 2 -12 -4 -9 -6 3 -10 10 -10 16 0 14 7 11 14 -7z m66
12 c0 -2 -8 -10 -17 -17 -16 -13 -17 -12 -4 4 13 16 21 21 21 13z m43 -51 c4
3 5 2 2 -2 -11 -14 -34 -11 -47 5 -12 16 -11 16 6 2 18 -14 19 -13 13 5 -7 18
-6 19 6 3 8 -10 17 -16 20 -13z m-108 -48 c0 -13 -5 -24 -11 -24 -13 0 -13 15
-1 35 11 17 12 16 12 -11z m141 -1 c0 -14 -3 -23 -7 -20 -6 3 -6 22 0 42 3 10
7 -2 7 -22z m-62 -3 c12 -7 15 -13 7 -17 -6 -4 -11 -12 -11 -17 0 -6 5 -7 10
-4 6 4 10 3 9 -2 -3 -20 2 -27 11 -13 8 13 10 13 10 1 0 -11 4 -10 13 4 13 17
14 17 12 -1 -1 -10 -7 -30 -12 -44 -6 -14 -7 -30 -2 -36 5 -7 3 -11 -7 -11 -8
0 -24 13 -35 29 -11 15 -24 26 -29 23 -4 -3 -7 3 -6 13 0 9 -5 16 -11 15 -16
-4 -17 23 -3 32 8 5 8 11 1 19 -20 24 7 30 43 9z m2931 -2963 c26 10 35 4 34
-19 0 -12 -3 -11 -9 4 -8 16 -9 13 -7 -15 1 -23 7 -34 15 -32 8 1 11 -1 8 -6
-3 -5 -1 -23 4 -40 8 -30 6 -29 -40 21 -27 29 -45 56 -40 61 5 5 7 14 6 20 -2
6 -1 8 1 4 3 -4 15 -3 28 2z m115 -6 c0 -8 -19 -13 -24 -6 -3 5 1 9 9 9 8 0
15 -2 15 -3z m32 -39 c3 3 11 -3 19 -12 13 -16 12 -17 -3 -4 -10 7 -19 11 -19
7 -8 -40 -2 -51 19 -34 14 11 14 9 -1 -8 -9 -11 -14 -24 -10 -28 5 -4 2 -6 -6
-4 -7 2 -16 -3 -19 -11 -3 -9 0 -11 8 -6 9 5 11 4 6 -3 -4 -7 -2 -12 3 -12 6
0 11 -4 11 -8 0 -5 -7 -9 -15 -9 -8 0 -11 5 -8 10 3 6 2 7 -3 4 -6 -3 -10 10
-11 29 0 19 3 34 7 34 10 0 7 41 -5 60 -7 12 -6 13 7 3 8 -7 17 -11 20 -8z
m-38 -82 c-1 -24 3 -46 7 -49 5 -3 9 -13 9 -22 0 -15 -1 -15 -16 0 -18 18 -26
115 -9 115 6 0 10 -20 9 -44z m107 34 c-6 -8 -7 -18 -3 -22 4 -5 2 -5 -4 -2
-6 4 -19 -2 -29 -13 -10 -11 -13 -20 -7 -20 6 0 9 -6 6 -14 -7 -18 24 -79 36
-71 5 3 7 -4 5 -16 -3 -12 0 -29 5 -38 7 -12 9 -13 10 -2 0 11 4 11 19 -3 12
-11 16 -25 13 -41 -4 -25 -5 -25 -33 12 -16 21 -29 47 -29 59 0 27 -10 36 -26
23 -9 -7 -17 -4 -28 13 -19 27 -21 49 -3 46 6 -2 12 7 12 18 1 12 6 28 12 35
6 8 12 19 12 24 1 6 5 10 10 10 5 0 13 3 17 8 13 12 17 8 5 -6z m43 -60 c4 4
4 -1 0 -12 -5 -12 -9 -14 -12 -7 -3 10 -7 10 -20 0 -15 -11 -15 -11 -5 3 7 9
9 20 5 25 -4 4 0 3 9 -4 9 -6 19 -9 23 -5z m52 -57 c0 -12 -4 -16 -9 -11 -5 5
-6 14 -3 20 10 15 12 14 12 -9z m53 -37 c14 10 14 10 4 -4 -7 -9 -11 -18 -8
-21 3 -2 -2 -5 -10 -5 -8 0 -13 3 -10 5 3 3 -1 12 -7 21 -10 13 -10 14 2 4 11
-10 17 -10 29 0z m67 -58 c-4 -27 -22 -37 -35 -21 -8 10 -9 16 -1 21 6 4 9 3
8 -2 -2 -4 2 -9 7 -10 6 -2 11 2 11 7 2 16 4 20 8 20 2 0 3 -7 2 -15z m29 -53
c-3 -3 0 -11 7 -19 6 -7 8 -16 4 -20 -3 -3 -6 -1 -6 6 0 7 -4 10 -9 7 -5 -4
-8 2 -6 11 1 10 -3 25 -9 33 -10 13 -9 13 7 1 9 -8 15 -16 12 -19z m-141 -13
c-8 -13 -24 -1 -24 18 0 13 3 13 15 3 8 -7 12 -16 9 -21z m51 -37 c3 -8 3 -17
0 -20 -3 -3 -5 1 -5 9 0 11 -2 12 -9 1 -6 -11 -9 -9 -13 5 -6 23 18 27 27 5z
m148 -23 c-8 -8 -13 -7 -18 2 -6 8 -4 10 5 4 10 -6 12 -4 6 11 -6 15 -5 17 5
7 9 -10 10 -16 2 -24z m-20 -34 c-3 -10 1 -15 13 -16 15 0 16 -2 4 -7 -21 -10
-26 -44 -5 -36 13 5 15 1 10 -27 -6 -31 -5 -33 8 -14 8 10 12 26 9 34 -4 10
-1 13 10 9 9 -4 20 -2 26 4 6 6 12 5 17 -4 5 -7 4 -10 0 -5 -9 8 -45 -20 -45
-36 0 -6 10 -2 23 9 l22 19 -21 -25 c-13 -15 -20 -35 -18 -50 4 -25 3 -25 -21
5 -14 17 -25 37 -25 45 0 8 -7 23 -15 33 -7 11 -11 29 -8 40 2 12 5 27 5 34 1
7 5 10 9 7 5 -2 6 -11 2 -19z m-89 0 c2 -6 -2 -12 -10 -12 -7 0 -15 6 -18 12
-2 6 2 12 10 12 7 0 15 -6 18 -12z m62 -31 c1 -19 -1 -32 -4 -29 -4 3 -7 21
-7 40 -1 19 1 32 4 29 3 -3 7 -21 7 -40z m99 21 c-2 -29 -11 -43 -12 -17 -1
18 4 42 10 42 1 0 2 -11 2 -25z m68 -58 c-3 -4 -8 -6 -11 -3 -3 3 -11 1 -19
-6 -11 -8 -12 -7 -7 5 3 9 14 15 24 14 10 -1 16 -5 13 -10z m43 -44 c-3 -19
-19 -21 -21 -2 -2 9 3 16 10 16 7 0 12 -6 11 -14z m-22 -45 c-5 -7 -2 -9 8 -5
17 6 19 -16 3 -30 -4 -4 -5 -2 -1 5 4 6 2 12 -5 12 -7 0 -9 -8 -4 -22 4 -13 8
-37 9 -53 0 -25 5 -31 23 -31 18 0 20 3 10 15 -8 10 -9 13 0 8 13 -8 12 18 -2
30 -4 4 -5 3 -1 -4 3 -6 2 -14 -3 -17 -13 -8 -22 37 -10 49 7 7 8 4 3 -10 -6
-16 -5 -18 7 -9 12 9 21 10 46 5 3 0 -1 -9 -9 -18 -13 -16 -15 -27 -9 -50 2
-5 6 1 11 12 l9 20 0 -20 c1 -18 3 -17 15 5 8 16 9 29 3 38 -5 6 -7 12 -3 12
15 0 22 2 36 13 8 6 6 2 -4 -11 -11 -12 -15 -22 -11 -22 5 0 4 -5 -3 -12 -7
-7 -12 -19 -12 -28 0 -13 2 -13 11 0 9 13 10 13 6 0 -3 -11 -19 -15 -63 -15
-52 0 -59 2 -59 20 -1 25 -14 47 -25 40 -4 -3 -11 3 -16 13 -10 24 -16 79 -7
67 11 -15 39 -12 35 4 -1 7 2 10 8 6 6 -3 7 -11 4 -17z m59 10 c-6 -7 -9 -21
-8 -31 2 -9 0 -15 -5 -12 -13 8 1 55 17 55 3 0 1 -6 -4 -12z m93 -123 c-1 -8
-5 -17 -8 -21 -5 -4 -4 16 1 34 3 9 9 -1 7 -13z m21 -17 c-3 -8 -6 -5 -6 6 -1
11 2 17 5 13 3 -3 4 -12 1 -19z"/>
<path d="M110 4471 c-6 -12 -8 -22 -5 -22 3 -1 9 -2 14 -3 19 -2 30 -23 33
-64 1 -9 5 -9 12 -2 7 7 6 14 -2 22 -9 9 -9 15 1 27 9 11 9 13 0 8 -10 -7 -41
31 -34 41 2 2 0 6 -2 9 -3 2 -10 -5 -17 -16z"/>
<path d="M243 4309 c-8 -8 -6 -19 4 -40 8 -16 15 -29 16 -29 5 0 1 70 -4 74
-3 3 -10 1 -16 -5z m14 -14 c0 -8 -4 -12 -9 -9 -5 3 -6 10 -3 15 9 13 12 11
12 -6z"/>
<path d="M464 4122 c4 -3 14 -7 22 -8 9 -1 13 0 10 4 -4 3 -14 7 -22 8 -9 1
-13 0 -10 -4z"/>
<path d="M521 4025 c2 -24 5 -42 8 -40 8 9 7 85 -2 85 -4 0 -7 -20 -6 -45z"/>
<path d="M571 3994 c7 -9 7 -20 -2 -36 -6 -13 -8 -20 -4 -16 4 4 14 0 22 -10
13 -15 13 -15 4 5 -14 27 -14 36 -1 28 6 -3 10 -2 10 4 0 5 -5 13 -10 16 -6 4
-8 10 -6 14 3 4 -1 8 -9 8 -11 0 -12 -4 -4 -13z"/>
<path d="M651 3888 c12 -23 21 -24 12 -1 -4 10 -2 14 5 9 6 -3 13 -3 16 2 2 4
-6 8 -19 8 -20 0 -22 -3 -14 -18z"/>
<path d="M679 3858 c-6 -27 -5 -39 4 -45 7 -3 9 -3 5 2 -4 4 -3 14 3 21 7 8 7
14 -1 19 -5 3 -10 5 -11 3z"/>
<path d="M816 3749 c3 -5 10 -6 16 -3 8 5 9 1 5 -10 -4 -10 -7 -20 -7 -22 0
-3 -5 -2 -11 1 -6 4 6 -15 26 -41 40 -52 53 -67 41 -46 -4 7 -1 24 8 37 15 22
14 24 -4 20 -22 -4 -45 20 -45 48 0 11 -8 21 -18 23 -9 1 -15 -2 -11 -7z m68
-72 c4 4 4 0 0 -10 -3 -9 -7 -17 -8 -17 -1 0 -13 15 -26 33 l-23 32 25 -23
c13 -12 28 -19 32 -15z"/>
<path d="M3762 767 c-8 -9 -2 -21 25 -47 32 -31 34 -32 18 -7 -9 15 -22 27
-29 27 -6 0 -4 5 4 10 13 9 13 10 0 10 -13 0 -13 1 0 10 8 5 10 10 4 10 -6 0
-16 -6 -22 -13z"/>
<path d="M3936 592 c-2 -4 2 -15 9 -25 10 -13 14 -15 18 -5 8 26 -14 51 -27
30z"/>
<path d="M4026 481 c-4 -5 -2 -12 3 -15 5 -4 12 -2 15 3 4 5 2 12 -3 15 -5 4
-12 2 -15 -3z"/>
<path d="M4315 211 c-3 -5 -2 -12 3 -15 5 -3 9 1 9 9 0 17 -3 19 -12 6z"/>
<path d="M4403 147 c-3 -6 -1 -7 5 -3 7 4 12 1 12 -9 0 -10 -5 -13 -12 -9 -7
5 -8 3 -4 -5 5 -7 10 -10 14 -7 3 3 11 -2 19 -12 13 -15 13 -14 3 6 -6 13 -9
29 -7 36 6 15 -21 17 -30 3z"/>
<path d="M4496 98 c3 -5 10 -6 15 -3 13 9 11 12 -6 12 -8 0 -12 -4 -9 -9z"/>
<path d="M2880 7723 c-88 -6 -265 -45 -363 -80 -492 -171 -865 -575 -990
-1073 -53 -209 -51 -166 -52 -1420 0 -1205 7 -2321 14 -2170 2 47 4 91 4 97
-1 7 3 11 7 8 4 -3 6 -29 5 -60 -2 -30 1 -58 6 -61 6 -3 5 -12 -3 -22 -8 -11
-4 -10 11 3 24 20 24 20 17 0 -4 -11 -4 -16 0 -12 4 4 16 0 26 -9 15 -14 16
-20 6 -33 -8 -10 -4 -9 10 3 23 20 31 10 10 -14 -11 -12 -10 -12 3 -2 18 14
29 7 29 -19 0 -10 4 -20 9 -23 4 -3 6 7 3 22 -3 15 -1 23 4 19 7 -7 14 -28 16
-54 1 -6 10 -10 21 -8 13 3 17 0 13 -11 -3 -9 -2 -12 5 -9 6 4 9 -1 7 -11 -2
-11 2 -18 10 -17 11 3 16 -10 13 -30 -1 -5 3 -6 8 -2 6 3 7 13 4 22 -5 11 -3
14 6 9 7 -5 11 -16 8 -26 -5 -20 35 -65 46 -53 4 3 8 1 8 -5 3 -27 4 -31 12
-39 5 -4 7 -3 5 2 -2 6 2 11 7 13 6 1 11 -2 11 -8 1 -5 3 -13 4 -17 1 -5 2
-12 1 -16 -1 -5 3 -6 8 -3 5 4 12 2 16 -4 4 -6 11 -7 17 -4 8 5 9 1 5 -10 -4
-10 -3 -15 3 -11 10 6 15 -9 10 -30 -1 -5 2 -7 6 -3 4 4 13 0 21 -10 10 -14
12 -14 8 -1 -4 10 0 16 9 16 8 0 14 -7 13 -16 -1 -9 2 -17 7 -18 14 -2 28 -32
21 -46 -4 -6 3 -1 14 13 22 27 28 21 10 -12 -9 -16 -8 -19 2 -13 9 6 11 3 6
-9 -4 -10 -3 -15 4 -11 5 4 7 16 3 27 -4 15 -3 18 6 13 6 -4 10 -18 7 -31 -2
-13 1 -22 7 -21 6 1 10 -4 8 -12 -3 -12 0 -12 12 -1 18 14 22 0 6 -16 -7 -7
-6 -11 4 -11 8 0 13 3 11 7 -2 3 0 12 6 20 6 11 9 8 9 -14 0 -16 12 -44 26
-63 22 -29 28 -32 42 -21 13 11 15 11 9 -4 -3 -9 1 -22 8 -28 8 -7 12 -17 8
-24 -4 -6 2 -4 12 4 17 14 18 13 12 -2 -3 -10 -2 -20 4 -23 5 -4 6 -11 3 -17
-4 -6 -2 -8 4 -4 6 3 9 18 6 32 -3 16 -1 23 6 19 11 -7 14 -48 3 -59 -4 -3 -8
-14 -9 -22 -1 -9 1 -13 4 -9 4 4 7 12 7 18 0 7 5 12 12 12 7 0 19 9 27 20 17
22 21 13 7 -13 -6 -12 -4 -26 5 -42 l15 -25 -7 25 c-6 22 -5 23 9 11 13 -10
14 -18 6 -35 -9 -19 -9 -19 4 -4 8 10 17 15 21 11 3 -3 -1 -14 -10 -24 -10
-11 -12 -19 -4 -24 6 -3 9 -3 8 2 -2 4 2 8 7 8 6 0 9 -5 7 -11 -1 -7 2 -15 8
-19 6 -4 7 1 3 12 -6 16 -5 16 9 5 9 -7 15 -22 13 -33 -2 -11 0 -17 5 -14 5 3
7 13 5 23 -1 10 3 29 10 42 13 24 13 23 10 -18 -1 -23 -9 -50 -16 -60 -11 -14
-9 -13 9 2 24 21 30 13 10 -14 -7 -9 -3 -6 8 6 23 24 42 21 22 -3 -11 -14 -4
-28 15 -28 7 -1 11 -7 9 -14 -1 -7 2 -10 7 -7 8 6 47 -43 44 -55 -1 -3 4 -6
12 -6 8 0 12 4 9 8 -2 4 0 10 6 14 5 3 10 2 10 -4 0 -5 3 -17 7 -27 5 -13 3
-15 -8 -9 -12 8 -12 6 0 -8 18 -23 20 -22 15 13 -14 94 -14 95 -3 80 9 -12 10
-11 6 8 -3 12 -1 20 4 16 5 -3 9 -13 10 -22 0 -11 3 -12 6 -4 2 6 9 12 15 12
6 0 6 -6 -2 -15 -11 -13 -7 -19 11 -17 4 1 4 -8 1 -20 -5 -21 -6 -21 -12 -2
-6 15 -8 16 -12 4 -3 -10 -4 -9 -3 2 2 10 -2 21 -7 24 -7 5 -8 -9 -3 -42 4
-27 8 -54 8 -61 0 -6 7 -8 16 -5 14 5 14 4 1 -14 -14 -18 -14 -18 4 -4 18 14
19 13 13 -3 -5 -12 -3 -16 5 -11 8 5 9 1 5 -12 -7 -18 -6 -18 6 -2 8 10 17 15
21 11 3 -3 -1 -14 -10 -24 -10 -11 -12 -19 -4 -24 6 -3 9 -1 8 5 -2 7 5 14 15
15 11 2 19 -5 23 -20 3 -14 12 -29 20 -36 11 -9 12 -15 2 -26 -13 -16 -22 -50
-10 -38 4 4 7 10 7 13 0 15 17 32 25 27 5 -3 7 6 4 21 -3 17 -1 23 7 19 6 -4
9 -20 7 -36 -3 -16 0 -27 6 -26 6 1 10 -4 8 -11 -1 -8 2 -11 7 -8 10 6 34 -18
26 -26 -3 -3 4 -13 15 -23 19 -17 19 -17 15 4 -2 11 0 23 6 26 5 4 9 -4 9 -17
1 -27 25 -63 43 -63 7 0 12 -5 12 -12 0 -7 5 -17 12 -24 10 -10 15 -6 23 15 5
15 10 36 10 47 0 10 5 19 11 19 5 0 7 6 3 13 -6 9 -5 9 8 0 8 -7 19 -9 23 -5
5 4 4 0 -1 -8 -11 -20 -13 -60 -2 -60 4 0 8 6 8 13 0 8 4 7 10 -3 9 -14 14 -7
11 13 -1 5 3 6 8 3 19 -12 4 -40 -22 -41 -15 -1 -28 2 -28 7 -1 4 -3 17 -4 28
-5 37 -6 35 -21 -19 -8 -30 -12 -56 -10 -58 2 -3 7 10 11 28 5 22 10 28 15 18
5 -7 6 -18 2 -24 -10 -15 -10 -55 0 -61 5 -3 8 -2 7 3 -3 20 2 27 11 13 6 -10
4 -20 -6 -31 -12 -14 -13 -18 -2 -25 7 -4 10 -4 6 1 -11 11 12 36 25 28 5 -3
7 -1 3 5 -3 6 -1 14 5 18 8 4 9 -5 6 -30 -4 -33 -3 -35 11 -24 13 11 15 10 9
-4 -3 -10 -1 -20 5 -24 6 -4 8 -3 5 3 -4 6 0 19 8 29 13 18 14 17 11 -11 -2
-16 1 -39 7 -50 6 -11 10 -23 9 -27 -3 -12 3226 -9 3358 2 513 46 975 354
1221 815 60 112 119 275 150 415 l24 105 3 1795 c3 1867 3 1874 -38 2055 -44
190 -149 412 -273 575 -239 313 -582 519 -983 589 -105 19 -179 19 -1869 18
-968 0 -1780 -2 -1805 -4z m3983 -823 c27 -13 70 -45 96 -71 70 -71 94 -127
99 -229 3 -69 0 -96 -18 -142 -28 -76 -104 -159 -178 -195 -50 -24 -69 -28
-147 -28 -76 0 -99 4 -146 26 -119 56 -196 165 -206 293 -13 160 89 313 240
362 67 22 201 13 260 -16z m-1913 -646 c450 -63 852 -275 1165 -614 33 -36 63
-67 66 -70 18 -15 134 -181 177 -252 112 -187 191 -391 239 -618 25 -117 27
-142 27 -380 0 -238 -2 -263 -27 -380 -79 -374 -245 -691 -503 -960 -309 -322
-671 -510 -1126 -587 -125 -21 -410 -23 -543 -4 -645 92 -1198 489 -1487 1066
-92 184 -148 361 -183 578 -28 170 -18 526 18 682 37 156 55 218 93 315 243
612 755 1050 1402 1199 51 12 121 24 155 28 34 3 64 7 65 8 11 10 382 1 462
-11z m-3447 -3139 c-3 -9 -8 -14 -10 -11 -3 3 -2 9 2 15 9 16 15 13 8 -4z m56
-11 c4 3 7 -6 7 -19 0 -13 -5 -23 -10 -22 -6 1 -10 -7 -11 -18 0 -11 5 -20 12
-20 21 0 26 -13 15 -43 -7 -20 -6 -33 3 -45 10 -15 14 -15 18 -3 3 8 3 17 -1
21 -9 8 -9 84 -1 79 4 -2 9 -15 11 -29 3 -13 1 -22 -3 -19 -5 3 -9 -1 -9 -9 0
-10 9 -14 30 -12 17 1 35 -4 42 -13 10 -12 10 -14 1 -9 -13 8 -31 -39 -19 -50
3 -4 6 1 6 10 0 9 4 18 8 21 5 3 8 -7 7 -22 -2 -18 -1 -20 3 -7 5 18 6 18 13
-5 7 -24 7 -24 8 -2 1 12 6 22 12 22 5 0 7 6 3 13 -4 6 -4 9 1 5 4 -4 15 -2
24 5 14 10 14 10 4 -4 -7 -9 -9 -20 -5 -24 4 -5 1 -5 -6 -1 -8 5 -15 -1 -21
-16 -9 -25 -6 -38 10 -38 6 0 8 4 5 8 -3 5 7 8 22 7 21 -1 27 -6 27 -26 0 -13
-3 -34 -7 -46 -10 -31 -2 -29 16 4 l14 28 9 -35 c9 -35 33 -46 60 -27 8 5 10
2 8 -10 -2 -10 -4 -22 -4 -27 -1 -6 -8 -1 -17 10 -12 15 -17 16 -21 5 -5 -11
-7 -11 -14 0 -6 10 -10 5 -15 -19 -6 -31 -8 -32 -25 -16 -10 9 -15 22 -12 30
8 20 -15 43 -38 39 -11 -2 -17 0 -14 5 3 5 -1 22 -9 38 -8 16 -12 33 -8 37 4
5 2 5 -5 1 -7 -4 -9 -14 -6 -24 5 -13 3 -14 -6 -6 -7 6 -13 18 -14 25 -4 22
-18 40 -27 34 -5 -3 -14 4 -20 15 -6 11 -15 18 -20 15 -4 -3 -18 7 -30 22 -12
16 -27 28 -33 28 -17 0 -17 92 0 113 12 15 12 15 6 -3 -6 -18 -5 -19 11 -6 12
10 14 17 6 25 -5 5 -9 17 -9 26 1 11 2 11 6 -3 2 -9 8 -15 12 -13z m57 -50 c1
-9 0 -13 -4 -10 -3 4 -7 14 -8 22 -1 9 0 13 4 10 3 -4 7 -14 8 -22z m35 -66
c-10 -11 -11 -9 -5 6 5 12 4 17 -3 13 -5 -3 -10 1 -10 9 0 13 2 13 16 0 12
-13 13 -18 2 -28z m57 -18 c-2 -5 2 -9 7 -7 6 1 9 6 7 10 -1 5 3 5 9 2 13 -9
-3 -28 -25 -31 -11 -2 -14 10 -7 34 3 7 11 0 9 -8z m72 -55 c-5 -7 -7 -15 -3
-19 4 -4 -1 -4 -11 0 -15 6 -17 4 -11 -7 5 -8 4 -11 0 -6 -16 14 -14 36 3 30
9 -4 13 -2 9 4 -3 5 0 10 8 10 10 0 12 -4 5 -12z m51 -48 c-6 -8 -7 -18 -3
-23 4 -4 -1 -2 -10 5 -19 14 -25 26 -9 16 5 -3 12 -1 16 5 3 5 9 10 12 10 3 0
0 -6 -6 -13z m-30 -24 c13 -16 12 -17 -3 -4 -10 7 -18 15 -18 17 0 8 8 3 21
-13z m63 -32 c14 -15 15 -21 4 -27 -7 -4 -10 -3 -5 1 4 5 0 17 -10 27 -9 10
-14 18 -11 18 3 0 13 -9 22 -19z m27 2 c13 -16 12 -17 -3 -4 -17 13 -22 21
-14 21 2 0 10 -8 17 -17z m-71 -12 c7 -15 7 -22 -2 -27 -7 -4 -10 -4 -6 1 4 4
3 16 -3 26 -5 11 -7 19 -5 19 3 0 10 -9 16 -19z m109 -47 c4 3 8 -1 8 -9 0 -8
-5 -11 -10 -8 -7 4 -8 -1 -3 -13 16 -40 15 -53 -2 -47 -10 4 -12 8 -4 11 9 3
8 10 -2 30 -7 15 -11 34 -8 42 4 11 7 11 10 2 2 -6 7 -10 11 -8z m-51 -49 c26
2 28 0 24 -23 -3 -17 -1 -23 6 -18 8 5 10 1 5 -10 -5 -13 -3 -15 8 -8 21 13
40 14 32 1 -4 -6 0 -8 10 -4 21 8 31 -8 13 -22 -11 -9 -12 -19 -2 -51 15 -50
28 -64 15 -15 -8 27 -7 41 1 49 8 8 12 4 17 -14 6 -22 7 -23 15 -4 8 18 8 18
5 -1 -2 -11 -9 -19 -15 -17 -13 2 -16 -11 -5 -21 3 -4 16 1 27 10 13 12 17 13
10 3 -11 -15 -9 -59 3 -69 3 -3 4 4 1 15 -3 12 -2 28 3 35 6 10 9 4 9 -17 0
-17 3 -33 6 -37 10 -10 34 4 27 17 -5 8 -3 8 8 0 8 -6 21 -10 30 -9 9 2 16 -3
16 -11 0 -7 -4 -11 -9 -8 -4 3 -8 0 -8 -7 0 -7 -7 -4 -16 7 -8 10 -14 15 -11
9 2 -5 7 -18 11 -29 5 -16 9 -16 23 -5 15 12 16 12 8 -1 -6 -8 -10 -18 -11
-22 -1 -5 -2 -9 -3 -10 -2 -2 -4 -14 -7 -28 -3 -20 -2 -22 7 -10 9 13 10 12 5
-3 -4 -12 -2 -16 6 -11 8 5 9 2 5 -9 -3 -9 -1 -19 5 -23 6 -4 8 -3 5 2 -3 6
-2 16 4 24 7 12 9 10 9 -7 0 -12 -4 -24 -9 -28 -14 -8 -49 46 -53 80 -2 17 -8
29 -15 28 -7 -2 -13 2 -13 8 0 6 8 8 18 5 16 -6 16 -5 -1 8 -13 10 -15 15 -5
19 7 3 3 4 -8 4 -17 -1 -21 -6 -18 -25 3 -15 1 -21 -6 -17 -5 3 -10 13 -10 21
0 8 -7 26 -16 39 -9 13 -13 28 -10 33 3 5 -1 9 -8 9 -8 0 -12 -6 -9 -13 2 -6
0 -15 -5 -18 -6 -3 -13 1 -16 10 -3 8 -10 13 -14 10 -4 -2 -8 10 -9 28 -1 37
-30 89 -44 80 -5 -3 -12 2 -15 11 -6 13 -9 14 -16 3 -6 -8 -7 -1 -4 22 4 25 3
29 -3 15 l-8 -20 -5 20 c-3 11 -5 4 -4 -16 1 -21 4 -35 9 -32 4 2 7 -4 7 -13
0 -16 -2 -16 -20 1 -11 10 -18 20 -15 23 3 3 0 11 -6 18 -6 8 -9 21 -5 29 3 9
2 14 -3 10 -8 -4 -8 10 -1 35 1 3 5 -5 10 -16 6 -16 16 -21 38 -19z m-61 -13
c3 -21 1 -24 -7 -12 -11 17 -14 57 -3 46 4 -4 9 -19 10 -34z m230 -49 c0 -7
-3 -11 -5 -8 -3 3 -10 -3 -17 -12 -9 -13 -14 -13 -20 -3 -6 9 -4 11 5 5 10 -6
12 -4 7 7 -7 18 -2 25 16 25 8 0 14 -6 14 -14z m-143 -26 c-5 -9 -3 -9 6 0 11
10 16 9 26 -5 8 -9 14 -26 14 -36 0 -23 -10 -16 -15 11 -2 10 -4 19 -4 21 -1
2 -6 0 -11 -3 -8 -5 -7 -11 1 -21 6 -8 9 -17 6 -20 -6 -6 -37 49 -37 66 0 6 5
8 10 5 6 -4 7 -12 4 -18z m174 -9 c-2 -7 2 -12 8 -11 6 1 11 -5 11 -13 0 -12
-4 -11 -18 2 -10 9 -16 21 -13 25 8 13 14 11 12 -3z m-13 -28 c10 -11 16 -20
13 -20 -3 0 -13 9 -23 20 -10 11 -16 20 -13 20 3 0 13 -9 23 -20z m68 -35 c22
4 22 2 -5 -21 -13 -10 -20 -15 -15 -10 4 5 -1 19 -10 30 -12 13 -13 17 -3 10
8 -6 23 -10 33 -9z m-56 -17 c-3 -8 -6 -5 -6 6 -1 11 2 17 5 13 3 -3 4 -12 1
-19z m122 -41 c-2 -2 -11 -8 -20 -15 -12 -9 -16 -9 -16 1 0 7 9 14 20 14 11 1
18 1 16 0z m-8 -30 c-15 -19 -1 -30 18 -14 14 11 14 10 3 -5 -8 -10 -19 -16
-25 -15 -7 1 -11 -4 -9 -11 1 -8 -2 -11 -7 -8 -5 4 -11 -3 -13 -14 -3 -20 -3
-21 -15 -1 -11 17 -8 24 19 50 32 32 49 42 29 18z m52 -14 c-5 -12 -3 -14 8
-8 8 5 11 5 6 -1 -5 -5 -14 -9 -20 -9 -7 -1 -11 -7 -9 -14 1 -7 -2 -10 -8 -6
-6 4 -4 15 6 31 19 28 26 31 17 7z m55 -45 c-2 -7 3 -12 11 -10 11 2 12 0 3
-10 -12 -15 -11 -35 2 -56 6 -11 11 -11 24 0 14 10 14 9 -1 -8 -15 -18 -15
-23 -4 -32 8 -7 18 -8 22 -4 5 4 5 1 1 -6 -4 -7 -12 -10 -17 -7 -14 9 -11 -8
7 -33 8 -13 13 -32 10 -45 -3 -12 3 -4 13 18 11 22 20 37 20 33 1 -3 4 -15 7
-25 5 -15 4 -15 -5 -3 -9 13 -11 13 -10 0 1 -23 17 -67 18 -51 1 8 7 11 17 7
12 -4 15 -2 10 9 -3 8 0 14 7 12 7 -1 10 5 9 13 -10 41 -11 52 -4 46 7 -7 8
-11 11 -37 0 -5 7 -7 14 -3 6 4 4 -2 -5 -13 -10 -11 -18 -23 -18 -28 0 -4 8
-1 18 6 15 12 16 12 5 -2 -7 -9 -9 -20 -5 -24 4 -5 1 -5 -7 0 -11 6 -13 2 -7
-21 5 -21 4 -25 -3 -14 -8 12 -10 10 -8 -7 1 -16 4 -19 13 -12 9 7 14 6 17 -3
2 -7 3 -2 2 12 -1 14 0 19 2 12 3 -9 9 -7 21 6 9 10 16 16 15 14 -1 -3 2 -14
8 -26 10 -20 9 -20 -5 -2 -14 18 -15 17 -21 -10 -4 -16 -8 -35 -11 -42 -2 -7
0 -11 5 -8 5 3 8 0 7 -7 0 -6 3 -13 9 -14 5 -1 13 -10 17 -20 8 -16 8 -16 5 2
-2 11 2 34 9 50 10 23 13 25 14 10 0 -14 3 -16 8 -7 5 7 8 -9 7 -38 -2 -74
-15 -79 -58 -24 -21 26 -37 41 -37 34 0 -7 -3 -10 -6 -7 -4 4 -1 13 5 21 9 11
9 16 -1 22 -7 5 -17 9 -23 9 -5 0 -10 17 -10 37 0 44 -12 52 -29 20 l-12 -23
-19 21 c-10 11 -14 20 -10 20 5 0 -4 13 -20 30 -15 16 -32 27 -38 23 -5 -3 -4
4 2 15 6 11 8 28 5 37 -6 14 -10 12 -25 -12 l-19 -28 0 27 c0 15 -4 30 -10 33
-5 3 -10 12 -10 18 0 7 7 4 15 -7 13 -18 14 -18 12 2 0 11 -4 19 -8 16 -8 -5
-22 27 -14 34 3 3 5 0 5 -6 0 -7 5 -12 11 -12 5 0 8 4 4 9 -3 5 0 13 7 17 7 4
10 3 5 -1 -4 -5 1 -17 10 -27 10 -11 13 -18 8 -16 -11 3 -15 -4 -15 -24 0 -9
4 -8 10 2 7 11 10 11 10 2 0 -7 4 -11 9 -8 11 7 9 29 -6 47 -5 8 -9 24 -8 37
1 13 -2 25 -7 28 -4 3 -6 10 -3 15 9 13 15 11 13 -3z m-61 -23 c-1 -5 4 -9 11
-7 8 1 11 -2 7 -8 -5 -8 -11 -7 -21 1 -17 14 -17 9 -4 -26 7 -18 7 -32 0 -43
-9 -15 -10 -15 -9 3 2 36 -1 58 -8 52 -3 -4 -6 -21 -5 -38 1 -38 -20 -25 -24
16 -1 14 -5 33 -9 44 -5 16 -1 19 29 18 19 -1 34 -6 33 -12z m160 -72 c-4 -3
-2 -12 3 -18 7 -9 5 -17 -7 -26 -16 -13 -17 -12 -5 3 9 11 10 18 2 23 -10 6
-5 25 7 25 4 0 3 -3 0 -7z m-30 -58 c0 -8 -4 -12 -9 -9 -5 3 -6 10 -3 15 9 13
12 11 12 -6z m120 -90 c0 -8 -4 -12 -9 -9 -5 3 -6 10 -3 15 9 13 12 11 12 -6z
m69 -20 c-1 -8 -5 -17 -8 -21 -5 -4 -4 16 1 34 3 9 9 -1 7 -13z m15 -28 c-6
-8 -7 -18 -3 -22 4 -5 1 -5 -6 -1 -10 6 -10 11 -1 22 6 8 14 14 16 14 3 0 0
-6 -6 -13z m-60 -42 c5 14 8 15 8 4 1 -8 -5 -23 -12 -33 -12 -17 -14 -15 -14
20 0 26 2 30 5 14 4 -23 5 -24 13 -5z m119 10 c-6 -8 -8 -20 -4 -27 5 -10 4
-10 -6 -1 -11 10 -11 15 0 28 7 8 15 15 17 15 3 0 0 -7 -7 -15z m24 -44 c3 -5
-2 -15 -12 -22 -15 -12 -16 -12 -5 2 7 9 10 19 6 22 -3 4 -4 7 0 7 3 0 8 -4
11 -9z m27 -14 c-6 -8 -7 -17 -3 -21 4 -4 0 -6 -8 -4 -10 2 -14 -5 -15 -24 0
-14 -3 -30 -7 -34 -12 -12 3 -26 16 -15 9 8 13 7 14 -2 6 -43 9 -57 15 -63 3
-3 4 8 2 25 -3 24 0 31 13 31 10 0 13 -3 7 -8 -9 -6 -10 -15 -6 -47 1 -5 6 -3
11 5 7 11 10 11 10 2 0 -7 5 -10 10 -7 6 4 7 12 4 18 -4 7 -3 8 2 4 5 -5 9
-14 9 -20 1 -7 7 -11 15 -9 11 3 11 0 1 -12 -7 -9 -17 -13 -22 -10 -11 6 -11
1 -3 -20 6 -15 8 -15 20 1 13 17 14 17 7 -2 -6 -18 -5 -18 10 -6 9 7 14 18 10
24 -3 6 -1 7 6 3 6 -4 8 -12 5 -18 -5 -7 -2 -9 8 -6 8 4 15 1 15 -7 0 -8 -7
-11 -15 -7 -15 5 -12 -6 10 -35 10 -13 41 -6 33 7 -3 5 -2 11 3 14 5 3 8 -12
8 -32 -1 -33 2 -37 24 -38 38 -1 43 5 26 31 -10 15 -12 26 -6 30 6 4 9 1 8 -7
-2 -7 2 -12 8 -11 8 1 12 -35 4 -44 -2 -2 -3 -7 -4 -12 0 -5 -4 -13 -8 -17
-14 -13 -8 -23 10 -19 17 3 18 -1 11 -38 -5 -23 -8 -46 -9 -50 0 -5 -5 -5 -10
-2 -6 4 -8 10 -5 15 3 5 1 11 -5 15 -5 3 -10 12 -10 18 0 7 6 4 14 -5 12 -16
13 -14 13 15 1 26 -1 28 -7 12 -6 -14 -9 -15 -9 -4 -1 8 -8 24 -17 35 -14 18
-15 18 -4 -4 6 -12 8 -32 5 -43 -7 -20 -7 -20 -19 -2 -15 21 -27 67 -27 103 0
23 -1 23 -8 5 -5 -11 -6 -25 -4 -31 2 -7 -1 -15 -6 -19 -6 -3 -8 -11 -5 -17 4
-7 2 -8 -5 -4 -6 4 -9 11 -6 15 2 5 -7 19 -20 31 -14 13 -25 33 -25 46 0 26
-25 51 -35 34 -3 -5 -3 -15 1 -22 4 -7 3 -8 -5 -4 -6 4 -18 23 -26 42 -9 23
-19 33 -26 28 -7 -4 -9 -3 -6 3 4 6 0 16 -8 23 -8 7 -15 10 -15 7 0 -3 -11 5
-25 19 -14 14 -25 35 -25 47 0 17 2 19 9 7 6 -8 8 -17 5 -21 -2 -4 1 -11 7
-15 8 -4 9 -3 5 4 -4 7 -1 12 6 12 10 0 10 2 -1 9 -12 8 -12 13 3 35 9 14 13
26 9 26 -3 0 4 11 17 25 25 26 41 35 21 12z m31 -61 c3 3 8 1 12 -4 11 -18
-25 -8 -41 12 -18 21 -18 21 3 3 11 -9 23 -14 26 -11z m54 -59 c2 -12 0 -16
-2 -9 -3 6 -10 10 -14 7 -5 -3 -12 -1 -15 5 -4 6 -1 9 7 8 7 -2 12 4 10 12 -2
8 0 12 4 7 4 -4 9 -18 10 -30z m39 -36 c-3 -5 -1 -12 5 -16 5 -3 10 -1 10 6 0
7 3 10 6 6 3 -3 3 -11 -1 -17 -5 -8 -11 -8 -21 1 -12 10 -11 29 2 29 3 0 3 -4
-1 -9z m82 -68 c0 -8 -4 -10 -12 -3 -7 6 -15 6 -22 -1 -6 -6 -10 -5 -10 4 0 7
10 13 22 13 12 0 22 -6 22 -13z m-4 -58 c-3 -9 -8 -14 -10 -11 -3 3 -2 9 2 15
9 16 15 13 8 -4z m110 -27 c-4 -7 -8 -16 -8 -20 0 -3 -3 -9 -7 -12 -5 -3 -6
-3 -3 1 3 3 -1 13 -8 21 -8 11 -8 14 0 9 6 -4 14 -3 18 3 3 5 8 10 11 10 3 0
2 -6 -3 -12z m-38 -17 c3 -5 2 -12 -3 -15 -5 -3 -9 1 -9 9 0 17 3 19 12 6z
m70 -44 c1 -7 6 -11 11 -10 6 1 11 -5 11 -13 0 -10 -4 -11 -10 -5 -7 7 -16 7
-26 -2 -14 -10 -14 -10 -5 3 6 8 10 23 8 33 -1 11 1 16 4 12 4 -4 7 -12 7 -18z
m43 -47 c-2 -5 2 -9 7 -7 6 1 9 5 8 8 -1 3 5 6 13 6 12 0 12 -3 -1 -17 -8 -9
-12 -21 -8 -26 5 -5 -2 0 -14 10 -13 10 -20 23 -17 27 7 12 15 11 12 -1z m78
-48 c-3 -3 0 -12 7 -20 10 -13 9 -14 -2 -7 -11 6 -13 4 -7 -11 4 -10 3 -15 -1
-10 -11 11 -11 66 0 59 4 -3 6 -8 3 -11z m-149 -12 c-3 -11 -1 -18 3 -15 12 7
23 -13 14 -26 -5 -8 -10 -6 -16 5 -5 9 -13 14 -18 11 -10 -6 -8 15 3 33 12 19
20 14 14 -8z m38 0 c5 -8 12 -7 23 2 12 10 14 10 8 1 -4 -8 -1 -13 9 -13 10 0
13 5 9 12 -4 7 -3 8 5 4 13 -9 5 -26 -12 -26 -7 0 -12 -14 -12 -31 0 -22 -5
-33 -16 -34 -12 -2 -15 3 -12 16 3 10 -2 30 -11 44 -9 13 -16 27 -16 30 0 9
19 5 25 -5z m58 -59 c-6 -22 12 -37 23 -20 4 8 3 9 -4 5 -7 -4 -12 -2 -12 3 0
6 5 11 11 11 5 0 7 6 3 13 -6 9 -5 9 8 0 8 -7 17 -11 20 -8 2 3 5 -1 5 -9 0
-8 -5 -14 -11 -13 -6 1 -10 -4 -8 -11 1 -8 -2 -11 -8 -7 -5 3 -10 1 -10 -5 0
-6 -4 -9 -8 -6 -4 2 -8 -4 -8 -14 0 -10 5 -16 10 -13 5 3 6 1 2 -5 -3 -6 -2
-13 4 -17 5 -3 10 -11 10 -18 0 -6 -7 -4 -17 6 -12 11 -17 35 -19 77 0 32 2
57 6 55 5 -3 6 -14 3 -24z m112 -11 c3 -18 2 -21 -7 -12 -7 7 -16 8 -23 2 -8
-7 -12 -5 -12 5 0 8 4 12 9 9 4 -3 11 2 14 11 8 19 13 15 19 -15z m-23 -65 c2
-13 11 -20 26 -21 12 -1 25 -3 30 -4 4 -1 11 -2 15 -1 5 1 6 -3 2 -9 -5 -8
-11 -7 -21 1 -11 9 -14 8 -14 -2 0 -9 -3 -10 -8 -4 -11 15 -32 17 -32 3 0 -9
-4 -8 -10 2 -9 13 -10 13 -10 0 0 -13 -1 -13 -10 0 -9 13 -10 13 -10 0 0 -11
-4 -9 -12 5 -25 42 -18 71 10 43 9 -9 11 -7 7 10 -3 19 -1 20 15 10 11 -7 20
-21 22 -33z m21 20 c-3 -9 -8 -14 -10 -11 -3 3 -2 9 2 15 9 16 15 13 8 -4z
m42 7 c-3 -3 0 -11 6 -18 7 -9 6 -14 -3 -20 -7 -4 -10 -3 -5 1 4 5 0 16 -8 25
-13 15 -13 17 0 17 8 0 13 -3 10 -5z m67 -44 c-14 -14 -44 -20 -36 -7 3 5 9 7
14 4 5 -3 11 -1 15 5 3 5 9 10 13 10 3 0 1 -5 -6 -12z"/>
<path d="M4535 5723 c-177 -23 -305 -59 -451 -128 -300 -141 -527 -365 -669
-660 -161 -334 -184 -729 -63 -1075 149 -423 477 -743 901 -881 270 -87 611
-83 887 11 382 131 695 426 846 799 76 187 105 356 99 576 -5 221 -40 371
-133 565 -234 494 -733 805 -1282 798 -58 0 -118 -3 -135 -5z"/>
<path d="M1524 3014 c1 -39 2 -42 13 -27 12 15 13 15 14 -8 1 -22 1 -22 10 5
4 17 6 32 4 35 -3 2 -5 -2 -5 -9 0 -9 -5 -7 -14 5 -8 11 -12 23 -10 27 2 4 1
9 -4 12 -4 2 -8 -15 -8 -40z"/>
<path d="M1604 2939 c0 -10 3 -16 7 -13 4 2 9 -5 11 -17 2 -16 5 -14 13 13 10
31 9 34 -10 34 -13 0 -21 -6 -21 -17z"/>
<path d="M1724 2843 c-2 -7 -6 -19 -8 -26 -2 -8 -1 -19 3 -26 5 -7 8 1 9 19 1
46 12 50 12 5 0 -46 10 -41 13 7 2 24 -1 35 -11 35 -8 0 -16 -6 -18 -14z"/>
<path d="M1696 2837 c3 -10 9 -15 12 -12 3 3 0 11 -7 18 -10 9 -11 8 -5 -6z"/>
<path d="M1780 2781 c0 -14 -4 -20 -12 -15 -7 5 -8 3 -2 -7 5 -8 8 -23 6 -34
-1 -16 1 -15 10 5 6 14 10 34 9 45 -4 28 -11 32 -11 6z"/>
<path d="M1840 2686 c0 -8 4 -17 9 -20 5 -4 7 3 4 14 -6 23 -13 26 -13 6z"/>
<path d="M1940 2635 c8 -11 15 -21 16 -23 1 -1 7 5 15 15 10 12 10 15 1 9 -7
-4 -20 -2 -30 6 -16 12 -16 11 -2 -7z"/>
<path d="M1991 2584 c0 -11 3 -14 6 -6 3 7 2 16 -1 19 -3 4 -6 -2 -5 -13z"/>
<path d="M2154 2418 l-19 -23 23 19 c21 18 27 26 19 26 -2 0 -12 -10 -23 -22z"/>
<path d="M2317 2273 c-8 -12 1 -65 11 -75 18 -18 23 11 7 36 -9 14 -14 30 -10
36 3 5 4 10 1 10 -3 0 -7 -3 -9 -7z m21 -68 c-3 -3 -9 2 -12 12 -6 14 -5 15 5
6 7 -7 10 -15 7 -18z"/>
<path d="M2368 2167 c-3 -15 -2 -30 3 -32 12 -8 16 8 9 35 l-6 25 -6 -28z"/>
<path d="M2530 2017 c0 -20 0 -39 0 -42 0 -3 3 -5 7 -5 8 0 8 68 0 77 -4 3 -7
-10 -7 -30z"/>
<path d="M2189 2367 c5 -5 7 -17 4 -26 -4 -13 -3 -14 5 -1 6 8 9 17 6 21 -2 4
2 9 8 12 7 3 3 4 -9 4 -14 -1 -19 -5 -14 -10z"/>
<path d="M2636 1943 c-6 -14 -5 -15 5 -6 7 7 10 15 7 18 -3 3 -9 -2 -12 -12z"/>
<path d="M2640 1903 c0 -7 0 -15 0 -18 0 -3 2 -5 5 -5 3 0 17 -13 31 -30 14
-16 31 -27 37 -23 6 4 8 0 5 -9 -4 -8 -2 -21 3 -29 7 -12 9 -12 10 1 1 8 2 22
3 30 0 8 7 14 14 12 8 -1 11 2 8 7 -3 5 -19 7 -36 6 -29 -2 -57 16 -47 33 3 4
2 14 -4 22 -7 13 -9 13 -9 0 0 -13 -1 -13 -10 0 -6 10 -10 11 -10 3z"/>
<path d="M2785 1790 c-4 -6 -11 -7 -17 -4 -7 4 -8 2 -4 -5 4 -6 11 -9 16 -6 4
3 7 -10 6 -28 0 -21 3 -31 12 -29 6 1 12 -4 12 -12 0 -8 3 -17 8 -19 14 -10 7
48 -10 72 -10 13 -15 28 -12 33 3 4 3 8 0 8 -3 0 -8 -5 -11 -10z m35 -63 c0
-14 -26 0 -27 15 -2 16 0 16 13 4 8 -8 14 -16 14 -19z"/>
<path d="M2856 1696 c4 -10 13 -15 20 -12 7 3 16 1 19 -5 4 -5 11 -7 16 -3 14
8 1 23 -19 19 -9 -1 -23 2 -30 8 -9 7 -11 6 -6 -7z"/>
<path d="M2871 1660 c0 -8 4 -22 9 -30 12 -18 12 -2 0 25 -6 13 -9 15 -9 5z"/>
<path d="M3032 1525 c9 -11 18 -31 21 -45 3 -16 4 -12 4 12 -1 21 -3 35 -6 33
-2 -3 -11 1 -20 7 -14 11 -13 10 1 -7z"/>
<path d="M3157 1410 c4 -16 1 -18 -17 -15 -13 2 -20 1 -16 -2 4 -4 17 -8 30
-9 18 0 22 3 18 18 -2 10 -8 20 -12 23 -5 3 -6 -4 -3 -15z"/>
<path d="M39 4408 c-5 -18 -6 -38 -1 -34 7 8 12 36 6 36 -2 0 -4 -1 -5 -2z"/>
<path d="M11 4354 c0 -11 3 -14 6 -6 3 7 2 16 -1 19 -3 4 -6 -2 -5 -13z"/>
<path d="M86 4328 c3 -5 10 -6 15 -3 13 9 11 12 -6 12 -8 0 -12 -4 -9 -9z"/>
<path d="M56 4308 c3 -5 10 -6 15 -3 13 9 11 12 -6 12 -8 0 -12 -4 -9 -9z"/>
<path d="M135 4281 c-3 -5 -2 -12 3 -15 5 -3 9 1 9 9 0 17 -3 19 -12 6z"/>
<path d="M203 4225 c0 -8 4 -12 9 -9 5 3 6 10 3 15 -9 13 -12 11 -12 -6z"/>
<path d="M363 4225 c-3 -9 -3 -18 -1 -21 3 -3 8 4 11 16 6 23 -1 27 -10 5z"/>
<path d="M175 4211 c-3 -5 -2 -12 3 -15 5 -3 9 1 9 9 0 17 -3 19 -12 6z"/>
<path d="M243 4178 c1 -7 -3 -12 -9 -11 -6 1 -11 -5 -11 -13 0 -12 4 -11 18 2
10 9 16 21 13 25 -8 13 -14 11 -11 -3z"/>
<path d="M259 4153 c-13 -16 -12 -17 4 -4 9 7 17 15 17 17 0 8 -8 3 -21 -13z"/>
<path d="M279 4143 c-13 -16 -12 -17 4 -4 9 7 17 15 17 17 0 8 -8 3 -21 -13z"/>
<path d="M299 4135 c-1 -3 -2 -8 -3 -12 -1 -5 -5 -15 -10 -23 -7 -12 -6 -13 4
-3 13 12 23 43 14 43 -2 0 -5 -2 -5 -5z"/>
<path d="M339 4068 c-5 -18 -6 -38 -1 -34 7 8 12 36 6 36 -2 0 -4 -1 -5 -2z"/>
<path d="M429 3983 c-13 -16 -12 -17 4 -4 9 7 17 15 17 17 0 8 -8 3 -21 -13z"/>
<path d="M433 3944 c0 -10 4 -11 10 -5 7 7 15 7 22 1 9 -7 17 -5 26 7 12 16
12 17 -2 6 -9 -7 -19 -10 -23 -6 -13 13 -33 11 -33 -3z"/>
<path d="M495 3931 c-3 -5 -2 -12 3 -15 5 -3 9 1 9 9 0 17 -3 19 -12 6z"/>
<path d="M496 3892 c-3 -5 1 -9 9 -9 8 0 12 4 9 9 -3 4 -7 8 -9 8 -2 0 -6 -4
-9 -8z"/>
<path d="M555 3890 c-4 -6 -11 -7 -17 -4 -7 4 -8 2 -4 -5 6 -9 11 -9 22 0 14
11 18 19 10 19 -3 0 -8 -5 -11 -10z"/>
<path d="M584 3836 c1 -8 5 -18 8 -22 4 -3 5 1 4 10 -1 8 -5 18 -8 22 -4 3 -5
-1 -4 -10z"/>
<path d="M614 3805 c0 -13 3 -22 7 -19 8 4 6 30 -2 38 -3 3 -5 -5 -5 -19z"/>
<path d="M787 3793 c3 -7 6 -13 8 -13 2 0 5 6 8 13 3 8 -1 14 -8 14 -7 0 -11
-6 -8 -14z"/>
<path d="M666 3761 c-3 -4 3 -16 13 -25 14 -13 18 -14 18 -2 0 8 -5 14 -11 13
-6 -1 -10 4 -8 11 2 14 -4 16 -12 3z"/>
<path d="M715 3690 c-4 -6 -11 -8 -16 -5 -16 10 -10 -2 9 -16 9 -7 14 -9 10
-5 -4 5 -3 15 3 23 6 7 9 13 6 13 -3 0 -9 -5 -12 -10z"/>
<path d="M769 3678 c-7 -24 -4 -40 10 -52 15 -14 18 -14 18 -2 0 8 -5 14 -11
13 -6 -1 -10 8 -10 21 1 18 -3 31 -7 20z"/>
<path d="M833 3583 c0 -9 4 -10 14 -2 7 6 13 12 13 14 0 1 -6 2 -13 2 -8 0
-14 -6 -14 -14z"/>
<path d="M796 3568 c3 -5 10 -6 15 -3 13 9 11 12 -6 12 -8 0 -12 -4 -9 -9z"/>
<path d="M855 3571 c-3 -5 -2 -12 3 -15 5 -3 9 1 9 9 0 17 -3 19 -12 6z"/>
<path d="M916 3565 c-3 -8 -1 -15 4 -15 6 0 10 7 10 15 0 8 -2 15 -4 15 -2 0
-6 -7 -10 -15z"/>
<path d="M885 3553 c2 -10 4 -20 5 -23 1 -3 2 -9 1 -13 -1 -5 3 -6 9 -2 8 5 7
12 -2 22 -7 9 -11 18 -10 20 2 3 1 7 -1 10 -3 3 -4 -3 -2 -14z"/>
<path d="M863 3525 c0 -8 4 -12 9 -9 5 3 6 10 3 15 -9 13 -12 11 -12 -6z"/>
<path d="M915 3511 c-3 -5 -2 -12 3 -15 5 -3 9 1 9 9 0 17 -3 19 -12 6z"/>
<path d="M1503 2883 c0 -9 4 -10 14 -2 7 6 13 12 13 14 0 1 -6 2 -13 2 -8 0
-14 -6 -14 -14z"/>
<path d="M1481 2874 c0 -11 3 -14 6 -6 3 7 2 16 -1 19 -3 4 -6 -2 -5 -13z"/>
<path d="M1535 2881 c-3 -5 -2 -12 3 -15 5 -3 9 1 9 9 0 17 -3 19 -12 6z"/>
<path d="M1559 2863 c0 -5 -2 -16 -4 -26 -2 -11 -1 -16 3 -13 8 8 14 46 7 46
-3 0 -5 -3 -6 -7z"/>
<path d="M1584 2846 c1 -8 5 -18 8 -22 4 -3 5 1 4 10 -1 8 -5 18 -8 22 -4 3
-5 -1 -4 -10z"/>
<path d="M1620 2800 c-6 -11 -8 -20 -6 -20 3 0 10 9 16 20 6 11 8 20 6 20 -3
0 -10 -9 -16 -20z"/>
<path d="M1683 2744 c9 -11 15 -24 12 -27 -3 -4 -2 -5 2 -2 4 3 8 13 9 21 1 9
0 13 -3 10 -4 -3 -13 0 -22 6 -12 10 -12 7 2 -8z"/>
<path d="M1653 2737 c0 -8 6 -14 14 -14 9 0 10 4 2 14 -6 7 -12 13 -14 13 -1
0 -2 -6 -2 -13z"/>
<path d="M1709 2703 c-13 -16 -12 -17 4 -4 9 7 17 15 17 17 0 8 -8 3 -21 -13z"/>
<path d="M1725 2691 c-3 -5 -2 -12 3 -15 5 -3 9 1 9 9 0 17 -3 19 -12 6z"/>
<path d="M1753 2683 c4 -3 1 -13 -6 -22 -11 -14 -10 -14 5 -2 16 12 16 31 1
31 -4 0 -3 -3 0 -7z"/>
<path d="M1793 2625 c0 -8 4 -12 9 -9 5 3 6 10 3 15 -9 13 -12 11 -12 -6z"/>
<path d="M1824 2596 c1 -8 5 -18 8 -22 4 -3 5 1 4 10 -1 8 -5 18 -8 22 -4 3
-5 -1 -4 -10z"/>
<path d="M1853 2565 c0 -8 4 -12 9 -9 5 3 6 10 3 15 -9 13 -12 11 -12 -6z"/>
<path d="M1876 2542 c-3 -5 1 -9 9 -9 8 0 12 4 9 9 -3 4 -7 8 -9 8 -2 0 -6 -4
-9 -8z"/>
<path d="M1934 2496 c1 -14 4 -28 7 -31 3 -3 5 6 5 19 -1 14 -4 28 -7 31 -3 3
-5 -6 -5 -19z"/>
<path d="M1905 2501 c-3 -5 -2 -12 3 -15 5 -3 9 1 9 9 0 17 -3 19 -12 6z"/>
<path d="M1966 2448 c3 -5 10 -6 15 -3 13 9 11 12 -6 12 -8 0 -12 -4 -9 -9z"/>
<path d="M2025 2410 c-4 -6 -11 -7 -17 -4 -7 4 -8 2 -4 -5 6 -9 11 -9 22 0 14
11 18 19 10 19 -3 0 -8 -5 -11 -10z"/>
<path d="M2035 2391 c-3 -5 -1 -12 5 -16 6 -4 7 -12 3 -18 -4 -7 0 -6 10 2 20
16 22 22 5 19 -7 -2 -12 3 -10 10 2 14 -4 16 -13 3z"/>
<path d="M2076 2348 c3 -5 10 -6 15 -3 13 9 11 12 -6 12 -8 0 -12 -4 -9 -9z"/>
<path d="M2103 2321 c0 -11 5 -18 9 -15 4 3 5 11 1 19 -7 21 -12 19 -10 -4z"/>
<path d="M2066 2298 c3 -5 10 -6 15 -3 13 9 11 12 -6 12 -8 0 -12 -4 -9 -9z"/>
<path d="M2125 2301 c-3 -5 -2 -12 3 -15 5 -3 9 1 9 9 0 17 -3 19 -12 6z"/>
<path d="M2153 2285 c0 -8 4 -12 9 -9 5 3 6 10 3 15 -9 13 -12 11 -12 -6z"/>
<path d="M2193 2218 c-11 -19 -13 -39 -1 -32 5 3 7 9 4 12 -3 3 -1 11 5 19 6
7 9 13 6 13 -3 0 -9 -6 -14 -12z"/>
<path d="M2254 2166 c1 -8 5 -18 8 -22 4 -3 5 1 4 10 -1 8 -5 18 -8 22 -4 3
-5 -1 -4 -10z"/>
<path d="M2287 2110 c7 -8 20 -15 29 -16 9 -1 13 1 9 4 -4 4 -10 7 -13 7 -4 0
-14 4 -22 9 -12 7 -13 6 -3 -4z"/>
<path d="M2363 2045 c0 -8 4 -12 9 -9 5 3 6 10 3 15 -9 13 -12 11 -12 -6z"/>
<path d="M2416 2012 c-3 -5 1 -9 9 -9 8 0 12 4 9 9 -3 4 -7 8 -9 8 -2 0 -6 -4
-9 -8z"/>
<path d="M2440 1980 c-6 -11 -8 -20 -6 -20 3 0 10 9 16 20 6 11 8 20 6 20 -3
0 -10 -9 -16 -20z"/>
<path d="M2446 1951 c-3 -5 2 -15 12 -22 15 -12 16 -12 5 2 -7 9 -10 19 -6 22
3 4 4 7 0 7 -3 0 -8 -4 -11 -9z"/>
<path d="M2470 1951 c0 -6 4 -13 10 -16 6 -3 7 1 4 9 -7 18 -14 21 -14 7z"/>
<path d="M2509 1911 c6 -10 7 -22 3 -26 -4 -5 -1 -5 6 -1 9 5 9 12 2 27 -6 10
-13 19 -16 19 -2 0 0 -8 5 -19z"/>
<path d="M2550 1871 c0 -6 4 -13 10 -16 6 -3 7 1 4 9 -7 18 -14 21 -14 7z"/>
<path d="M2555 1829 c-3 -4 2 -6 10 -5 21 3 28 13 10 13 -9 0 -18 -4 -20 -8z"/>
<path d="M2663 1765 c0 -8 4 -12 9 -9 5 3 6 10 3 15 -9 13 -12 11 -12 -6z"/>
<path d="M2676 1723 c-6 -14 -5 -15 5 -6 7 7 10 15 7 18 -3 3 -9 -2 -12 -12z"/>
<path d="M2733 1686 c1 -6 -3 -10 -9 -9 -6 1 -11 -5 -11 -13 0 -10 7 -9 24 8
27 25 27 25 9 25 -8 0 -14 -5 -13 -11z"/>
<path d="M2784 1646 c1 -8 5 -18 8 -22 4 -3 5 1 4 10 -1 8 -5 18 -8 22 -4 3
-5 -1 -4 -10z"/>
<path d="M2763 1615 c0 -8 4 -12 9 -9 5 3 6 10 3 15 -9 13 -12 11 -12 -6z"/>
<path d="M2813 1615 c0 -8 4 -12 9 -9 5 3 6 10 3 15 -9 13 -12 11 -12 -6z"/>
<path d="M2829 1598 c-5 -18 -6 -38 -1 -34 7 8 12 36 6 36 -2 0 -4 -1 -5 -2z"/>
<path d="M2856 1581 c-3 -5 2 -15 12 -22 15 -12 16 -12 5 2 -7 9 -10 19 -6 22
3 4 4 7 0 7 -3 0 -8 -4 -11 -9z"/>
<path d="M2885 1520 c-3 -6 1 -7 9 -4 18 7 21 14 7 14 -6 0 -13 -4 -16 -10z"/>
<path d="M2909 1503 c-13 -16 -12 -17 4 -4 16 13 21 21 13 21 -2 0 -10 -8 -17
-17z"/>
<path d="M2936 1501 c-3 -5 2 -15 12 -22 15 -12 16 -12 5 2 -7 9 -10 19 -6 22
3 4 4 7 0 7 -3 0 -8 -4 -11 -9z"/>
<path d="M3000 1429 c0 -5 -4 -7 -10 -4 -14 9 -12 -1 3 -13 10 -8 13 -6 14 9
1 10 0 19 -3 19 -2 0 -4 -5 -4 -11z"/>
<path d="M3023 1405 c0 -8 4 -12 9 -9 5 3 6 10 3 15 -9 13 -12 11 -12 -6z"/>
<path d="M3047 1363 c4 -11 8 -12 13 -3 6 9 9 9 13 1 4 -8 5 -8 3 0 -1 7 -9
13 -18 15 -11 1 -15 -3 -11 -13z"/>
<path d="M3655 771 c-3 -5 -2 -12 3 -15 5 -3 9 1 9 9 0 17 -3 19 -12 6z"/>
<path d="M3675 741 c-3 -5 -2 -12 3 -15 5 -3 9 1 9 9 0 17 -3 19 -12 6z"/>
<path d="M3704 716 c1 -8 5 -18 8 -22 4 -3 5 1 4 10 -1 8 -5 18 -8 22 -4 3 -5
-1 -4 -10z"/>
<path d="M3734 696 c1 -8 5 -18 8 -22 4 -3 5 1 4 10 -1 8 -5 18 -8 22 -4 3 -5
-1 -4 -10z"/>
<path d="M3781 643 c1 -4 0 -10 -1 -13 -6 -16 -7 -41 -2 -35 4 4 7 10 7 13 0
4 4 12 8 19 4 6 3 15 -3 18 -6 4 -10 3 -9 -2z"/>
<path d="M3855 583 c2 -10 4 -19 5 -20 2 -2 3 -7 4 -12 0 -5 4 -12 8 -16 5 -6
3 25 -2 33 -2 1 -3 6 -4 11 0 5 -4 12 -8 16 -3 4 -5 -1 -3 -12z"/>
<path d="M3829 583 c0 -5 -2 -16 -4 -26 -2 -11 -1 -16 3 -13 8 8 14 46 7 46
-3 0 -5 -3 -6 -7z"/>
<path d="M4016 568 c3 -5 10 -6 15 -3 13 9 11 12 -6 12 -8 0 -12 -4 -9 -9z"/>
<path d="M3895 533 c4 -25 -5 -36 -19 -24 -9 8 -13 7 -13 -3 0 -14 21 -16 34
-3 10 11 12 36 3 42 -5 3 -7 -3 -5 -12z"/>
<path d="M4111 464 c6 -7 16 -11 21 -8 11 7 3 17 -18 20 -12 2 -13 -1 -3 -12z"/>
<path d="M3939 468 c-5 -18 -6 -38 -1 -34 7 8 12 36 6 36 -2 0 -4 -1 -5 -2z"/>
<path d="M3993 416 c1 -6 -4 -10 -11 -8 -8 1 -11 -2 -7 -9 5 -8 10 -8 18 0 8
8 17 6 31 -7 21 -17 21 -17 3 4 -9 11 -15 23 -12 26 3 2 -1 5 -9 5 -8 0 -14
-5 -13 -11z"/>
<path d="M4052 378 c2 -7 -3 -12 -11 -10 -11 2 -12 0 -3 -11 7 -8 10 -17 7
-20 -3 -4 -2 -4 3 -1 4 3 7 9 7 12 0 4 4 12 8 19 4 6 3 15 -3 18 -6 4 -9 1 -8
-7z"/>
<path d="M4225 369 c-4 -6 -5 -12 -2 -15 2 -3 7 2 10 11 7 17 1 20 -8 4z"/>
<path d="M4070 335 c0 -2 6 -8 13 -14 10 -8 14 -7 14 2 0 8 -6 14 -14 14 -7 0
-13 -1 -13 -2z"/>
<path d="M4183 223 c0 -9 4 -10 14 -2 7 6 13 12 13 14 0 1 -6 2 -13 2 -8 0
-14 -6 -14 -14z"/>
<path d="M4205 211 c-3 -5 -2 -12 3 -15 5 -3 9 1 9 9 0 17 -3 19 -12 6z"/>
<path d="M4234 185 c0 -13 3 -22 7 -19 8 4 6 30 -2 38 -3 3 -5 -5 -5 -19z"/>
<path d="M4363 160 c0 -30 2 -43 4 -28 2 16 2 40 0 56 -2 15 -4 2 -4 -28z"/>
<path d="M4236 137 c3 -10 9 -15 12 -12 3 3 0 11 -7 18 -10 9 -11 8 -5 -6z"/>
<path d="M4293 85 c0 -8 4 -12 9 -9 5 3 6 10 3 15 -9 13 -12 11 -12 -6z"/>
</g>
</svg>
