<?xml version="1.0" standalone="no"?>
<svg version="1.0" xmlns="http://www.w3.org/2000/svg"
 width="512.000000pt" height="512.000000pt" viewBox="0 0 512.000000 512.000000"
 preserveAspectRatio="xMidYMid meet">

<g transform="translate(0.000000,512.000000) scale(0.100000,-0.100000)"
fill="#000000" stroke="none">
<path d="M1249 3600 c-71 -21 -139 -115 -139 -189 1 -79 70 -169 147 -190 53
-15 2553 -15 2606 0 77 21 146 111 147 190 0 53 -44 132 -92 165 l-41 29
-1301 2 c-716 1 -1313 -2 -1327 -7z"/>
<path d="M1219 2732 c-43 -22 -59 -38 -81 -81 -36 -68 -36 -114 0 -182 22 -43
38 -59 81 -81 l53 -28 1288 0 1288 0 53 28 c43 22 59 38 81 81 36 68 36 114 0
182 -22 43 -38 59 -81 81 l-53 28 -1288 0 -1288 0 -53 -28z"/>
<path d="M1246 1895 c-74 -26 -135 -110 -136 -186 0 -53 44 -132 92 -165 l41
-29 1317 0 1317 0 41 29 c48 33 92 112 92 165 -1 79 -70 169 -147 190 -26 7
-451 11 -1308 11 -1052 -1 -1277 -3 -1309 -15z"/>
</g>
</svg>
